
<svg xmlns="http://www.w3.org/2000/svg" version="1.1" xmlns:xlink="http://www.w3.org/1999/xlink" preserveAspectRatio="none" x="0px" y="0px" width="512px" height="512px" viewBox="0 0 512 512">
<defs>
<path id="Layer7_0_1_STROKES" stroke="#000000" stroke-width="0.5" stroke-linejoin="round" stroke-linecap="round" fill="none" d="
M 432.1 82.4
Q 434.3 82.3 438.4 82.05 441.65 81.8 443.3 81.8 453.45 81.8 455.4 81.6 458.05 81.35 458.45 80.9 458.9 80.4 455 80.2 450.15 79.95 448.45 79.85 445.8 79.7 443.8 79.7 442.1 79.7 439.35 80.1 437 80.4 436.5 80.3 433.2 79.7 432 79.4 431.05 79.15 429.1 79.4 427.2 79.6 428.4 79.9 431.35 80.6 428 81.1 425.4 81.5 425.05 81.5 424.05 81.5 424.1 80.7 424.15 79.95 423.15 80 421.8 80.2 421.1 80.2
L 416.4 80.2
Q 413.1 80.35 415.1 81.1 417.1 81.85 421.05 82.2 423.2 82.35 426.5 82.5 429 82.7 432.1 82.4 Z
M 354 382.6
Q 354 376.15 353.95 375.8 353.75 374.3 351.8 370 348.85 363.5 348.45 362.3 347.2 358.55 347.2 353.8 347.2 349.45 347.95 348.5 349.8 346.9 352 343.6 356.4 336.95 357.3 334.95 359.15 330.65 357.8 326.4 357.05 323.95 355.45 316.7 354.05 310.5 352.6 306.8 351.25 303.3 351.2 299.5 351.15 295.7 350.2 293.4 349.3 291.1 346.8 290 344.3 288.8 342.8 285.2 340.7 280.1 340.65 278.9 340.6 277.7 342.4 273.2 344.75 268.45 345.3 266.65 346.05 263.9 344.4 259.8 342.5 255.05 341.5 254.2 340.6 253.35 338 253.8 335.55 254.25 334.85 253.6 334.25 253.1 333.8 250.4 333.35 247.75 332.3 247.15 331.15 246.5 328.8 247.8 324.7 250.1 316.2 254 311.35 256.5 308.8 257.45 304.3 259.05 300.6 258 295.1 256.5 294 256.4 291.35 256.1 288 257.6 284.25 259.25 282.85 259.2 281.4 259.1 278.4 257 268.5 250.05 265.8 245.8 263.55 241.75 262.35 239.65 260.2 235.85 258 233.8 254.65 230.6 254.05 229.8 252.7 227.8 251.6 223.2 250.4 218.15 250.4 214.25 250.35 210.4 251.4 206 252.1 203.15 254.1 200 255.7 197.45 255.6 195.6 255.55 194.55 256.5 191.9 257.1 190.2 255.6 188 253.8 185.35 254.65 183.95 254.95 183.45 260.6 177.6 262.4 175.75 268.45 170.05 271.65 167 272.8 165 274.15 162.65 276.3 161.55 277.85 160.7 281 160 283.15 159.55 284.45 158 286.2 155.95 286.4 155.8 287.2 155.3 287.8 152.45 288.6 148.6 289.8 146.2 291.35 143.1 292.15 142.55 292.85 142 296.4 140.2 299.55 138.3 301.45 135.95 302.5 134.6 303.8 132.4 304.25 131.75 304.4 131.8 304.5 131.85 304.85 132.4 305.95 133.75 309.6 133.4 313.5 133.05 315.95 132.05 317.45 131.45 321.4 129.8 323.4 129.1 327.15 127.45 329.95 126.2 333 125.4 335.7 124.7 340.15 123.45 343.75 122.45 345.8 122.2 346.1 122.15 352.45 120.3 356.95 118.95 358.6 120 360.6 121.3 360.7 123.3 360.75 125.15 359.2 127.8 358.2 129.5 357.1 130.4 357.2 130.5 364 131.6 369 132.4 369.4 132.5 368.2 132 369.8 131.6 370.85 131.35 375.25 133.35 379.65 135.35 384.6 134.2 391.1 132.7 392.55 131.75 394.05 130.75 393.6 128.2 393.25 126.2 393.7 125.9 397.2 123.7 398 123 400.85 120.65 403.95 121.25 408.25 122.1 410.2 121.6 412.7 120.95 416.65 120.4 419.9 119.95 422 119.2 424.15 118.45 426.95 116.3 430.25 113.8 432.2 112.8 434.45 111.65 439.05 110 443.25 108.5 444.4 107.8 446.55 106.55 447.6 104.85 448.95 102.55 448.8 99 448.6 93.8 448.6 91.6 448.6 89.05 447.95 88.15 446.85 86.6 443.8 87.8 441.7 88.65 441.05 90.4 440.5 91.95 437.4 92.8 433.55 93.85 431.6 94.8 431.3 94.95 427 97.4 423.5 99.4 422.7 99.55 421.2 99.75 417 98.2 413 96.75 412.75 96.45 412.4 95.3 411.2 93.2 410.5 91.95 410.35 90.5 410.25 88.95 410.25 88.9 409.9 88.15 404.6 90 398.7 92.05 397.9 93.75 397.2 95.15 400 96 402.55 96.8 403.15 97.8 403.8 98.9 402.2 100.6 401.3 101.6 400.4 105.1 399.7 107.55 398.4 107 397.2 106.5 396.85 105.2 396.3 103.2 394.8 101.4 393.45 99.8 390.5 97.6 388.55 96.15 389 95.4 389.65 94.3 387.8 92.25 385.9 90.1 383.6 89.8 381.7 89.55 380.85 89.3
L 369.55 85.75
Q 365.05 84.7 362.5 85.7 359.65 86.85 361.25 88.7 362.75 90.35 367.2 91.8 369.95 92.7 371.95 93.9 373.6 94.9 375.8 95.4 379.15 96.15 381.7 97.7 384.2 99.2 382 99.2 379.9 99.2 379.25 100.15 378.6 101 379.6 101.8 380.5 102.55 380.25 103.9 380 105.25 378.8 106.6 378.05 107.45 377.5 106.05 376.5 103.55 374.4 102.2 372.95 101.25 367.35 98.95 362.7 97 361 95.2 357.9 91.85 356.4 91.2 353.65 89.95 350.6 92.6 347.7 96 346.85 96.85 345.65 97.95 341.6 97.6 337.75 97.25 337.1 98.9 335.75 102.45 335 103.2 331.4 106.5 329.65 108.2 326.45 111.15 325 113.6 323.8 115.6 323.1 120.5 321.95 124.55 317.6 125.4 308.8 127.1 306.6 127.6 302.55 128.5 301.25 126.75 299.55 124.55 297.8 124.4 294.95 124.15 295 122.4 295.6 119.7 295.6 117.8 295.6 116.25 296.8 114.2 298.15 111.9 298.6 107.6 299.15 102.5 299.4 102.4 299.95 102.1 304.8 101.8 308.6 100.95 312.15 101.2 315.85 101.45 318 101 320.5 100.5 323.6 101.1 325.2 100.9 324.2 96.2 323.1 91 322.85 90.6 321.8 90 320 88.6 317.75 86.85 317.45 85.75
L 317.6 85 317.7 82
Q 314.95 81.5 315.15 81.3 315.3 81.2 318.1 80.7 319.15 80.5 322.35 80.25 324.5 80.1 325.8 79.5 326.95 79 328.5 78.45 329.4 78.05 329 77.5 328.3 76.9 328.35 76.8 328.4 76.75 330.5 76.6 332.35 76.5 333.75 76.75
L 336.4 77.3
Q 337.65 77.45 339.6 77.5 342 77.5 343.2 77.6 344.65 77.7 348.35 78.05 351.45 78.25 352 78 352.45 77.8 355.5 78 357.8 77.95 355.7 76.5 353 74.65 352 74.4 350.9 74.05 348.4 74.5 346.45 74.85 343.95 74.4 341.35 73.95 340.9 74 340 74.1 338.2 73.45 335.6 72.45 335.5 72.4 333.75 71.95 332.65 71.9 331.15 71.85 332.6 72.9 334.35 74.2 335.2 74.55 336.2 74.95 337.5 74.8 338.6 74.7 340 75.1 340.8 75.35 342.6 75.9 344.2 76.3 344 76.7 343.8 77.1 341.7 76.9 340.35 76.75 338.65 76.8 337.2 76.8 336 76.6 334.1 76.2 333.25 76.05 331.85 75.8 330 75.8 328.55 75.8 326.9 75.95 325.3 76.1 323.6 76.1 320.7 76.1 316.5 75.5 315 75.3 313.9 74.5 312.8 73.75 313.5 73.6 314.3 73.4 314.45 73 314.6 72.5 313.5 72.2 312.55 72.1 312.4 72.05 312.35 72.05 311.4 71 310.35 69.9 310.55 69.7 310.6 69.6 312.5 69.1 313.95 68.7 315.4 68.75 316.4 68.8 319 69 323.65 69.3 326.5 69.3 331.4 69.3 334.5 69.2 336.05 69.15 339.1 69 341.65 68.9 342.9 69.1 344.75 69.4 346.95 68.65 349.15 67.95 345.6 67.6 342.85 67.35 342.35 66.6 341.85 65.85 339.9 65.7 337.65 65.55 336 66.05 334.05 66.65 332.5 66.7 330.2 66.75 326.55 66.3 325.85 66.25 320.2 65.4 319.4 65.3 314.2 64.9 310.75 64.6 309 63.9 305.85 62.8 305.45 62.6 304.95 62.35 309.7 63.2 313.8 63.9 317.8 64.3 321 64.6 321.7 64.8 324.6 65.6 329.2 65.6 331.65 65.6 334.5 65.2 337.7 64.75 334.1 64.4 328.6 63.95 326.35 63.7 322.55 63.35 321.7 63.1 321.55 63.05 319.25 62.85 317.7 62.7 317.4 62 317.05 61.2 316.75 61.15 315.5 61.15 313.6 61.1 311.9 61.05 309.15 60.35 306.35 59.6 303.3 59.5 299.75 59.4 296.45 58.85 292.75 58.15 290.6 57.8 288.25 57.4 286.75 57.7 285.4 57.9 284.6 57.7 282.95 57.3 282.35 56.45 281.75 55.6 283.5 55.3 286.15 54.9 286.3 54.85 286.9 54.55 284.7 53.9 282.9 53.35 281.15 53.55 279.45 53.75 278.6 53.5 277 53.05 276.8 52.75 276.5 52.45 277.6 52 278.5 51.65 277.35 51.5 275.55 51.35 274.8 51.2 273.9 51 273.45 51.05 271.05 51.3 270.6 51.3 266.55 51.45 265.05 51.55 262.45 51.8 264.4 52.5 266.4 53.2 265.1 53.25 262.8 53.2 261.4 53.2 259.6 53.2 258.3 53
L 256.1 52.6
Q 255.25 52.45 256.05 52.4 257.65 52.35 258.3 52.2 259.55 51.95 259.05 51.6 258.5 51.2 256.2 51.2 254.6 51.2 251.65 50.35 249.05 49.6 247.8 49.8 246.25 50.05 244.15 49.95 243.65 49.95 239.7 49.6 238.35 49.5 235.7 49 233.6 48.6 231.6 48.6 226.95 48.55 224 48.55 218.45 48.5 215.9 48.6 212.95 48.75 210.45 48.65 208.5 48.55 205.2 48.2 200.2 48 196.2 47.5 193.8 47.2 191.95 47.2
L 187.9 47.2
Q 185.2 47.15 183.85 46.3 182.45 45.5 185.2 45.8 190.45 46.4 191.7 46.4 196.05 46.4 196.8 45.9 197.4 45.5 197.15 45.45 196.4 45.45 195.6 45.4 194.25 45.3 194.35 44.95 194.5 44.55 196.5 44.6 197.95 44.65 199.35 44.75 200.3 44.75 202.3 44.5
L 207.3 43.8
Q 208.05 43.7 211.9 43.7 214.2 43.7 215.75 43.6 217.3 43.5 218.7 43.5 221.55 43.5 222.4 43.4 223.75 43.2 223.6 42.6 223.2 41.95 223.25 41.8 223.3 41.65 225.1 41.5 226.7 41.4 227.55 41.15 228.8 40.75 229.6 40.6 231.4 40.3 234.6 39.9 236.25 39.7 237.75 39.5 238.5 39.45 239.3 40 239.65 40.25 241.65 40.65 242.8 40.85 241.8 41.5 241.55 41.65 240.5 42.7 240.1 43.05 238.8 43.1 235.8 43 232.9 43.3 231.9 43.4 228.2 44 226.05 44.35 227.05 44.55 228.05 44.75 229.5 44.5 230.4 44.35 231.55 44.55 233.15 44.8 234.5 44.8 241.8 44.8 243.7 44.3 244.75 44 246.95 44.1 249.85 44.2 250.9 44.1 252.35 44 254.95 44.35 257.65 44.75 259.1 44.7 260.45 44.65 263.65 45.1 266.6 45.45 268.3 45.3 274.15 44.75 277.5 44.6 281.9 44.4 283.8 44.2 289.85 43.55 285.9 42.8 284.3 42.5 282.1 42.85 280.5 43.1 279.3 42.3 277.7 41.2 277.7 40.8 277.7 40.4 279.2 40.4
L 281.55 40.4
Q 282.4 40.35 282.8 40.1 283.35 39.7 283.25 39.1 283.1 38.35 281.9 38.3 280.4 38.2 280.1 37.6 279.8 36.95 281.9 37 285.85 37.15 289.6 37.6 291.25 37.8 290.4 38.15 289.6 38.5 288.2 38.5 287.1 38.5 286.4 39.1 285.8 39.65 286.2 40 286.45 40.2 284.6 40.95 283 41.6 283.9 41.6 288.5 41.6 291.6 41.1 296.05 40.4 302.5 39.6 310.95 38.6 314.3 38.9 316.25 39.1 395.65 58.45 435.4 68.15 474.7 77.8 462.9 76.8 459.8 77 457.75 77.15 454.3 76.7 451.55 76.35 450.2 76 448.85 75.65 445.2 75.75 441.6 75.8 444.8 76.6 449.4 77.75 455.3 78.3 461.05 78.85 464.5 78.6 466.05 78.5 469.9 78.85 474.25 79.2 475.1 79.2 476.4 79.2 477.45 79.5 478.45 79.8 479.1 79.8 480.6 79.8 484.6 80.1
L 495 82.8 470.8 247.2
Q 469.75 247.45 468.35 248.05 465.55 249.25 463.8 251 462.3 252.5 459 257.65 455.5 263.15 454.2 264.6 450.7 268.6 450.6 268.8 448.85 271.15 447.4 275.2 446.1 278.85 444.55 281.7 442.65 285.05 442.4 285.6 439.9 291.4 441.4 301 442.15 306 442.6 313.75 442.65 315.45 443 324.8 443.2 330.25 441.95 336.65 440.35 344.6 437.4 347 434.7 349.2 431.85 352.95 429 356.9 427.8 358.4 426 360.65 424.9 364.65 423.75 368.6 424.2 371 424.6 373.15 424.5 377 424.4 379.1 424 384.8 423.75 388.5 422.45 390.5 421.9 391.35 419.2 393.8 416.6 396.2 416.2 396.9 415.15 398.55 415.4 401.6 415.75 405.6 415.2 407.75 414.5 410.55 412 411.8 410.5 412.55 407.5 414.6 404.55 416.55 401.6 418 389.55 423.8 384.8 423.8 383 423.8 379.9 423.2 376.8 422.6 374.4 422.6 373.05 422.6 371.3 423.2 368.85 424.05 368.6 424.15 365.4 424.85 362 421.6 358.8 418.5 359.45 415.25 360.25 411.2 359.6 409.8 358.8 408.1 358.1 404.75 357.55 402.1 356 400 354.4 397.85 354.4 395.65 354.3 391.9 353.8 389.8 352.95 386.2 353.4 384.05
L 354 382.6 Z
M 454.2 139
Q 453.15 134.1 452.05 129.7 450.8 124.95 450.6 124 449.95 121.05 447.8 122.35 445.55 123.7 445.4 128.2 445.25 133.05 445.8 138.25 446.3 143.55 447.2 145.6 448.4 148.45 448.7 149.75 449.2 152.35 448.8 157 448.5 160.5 448.05 165.05 448.05 168.2 450.4 170.4 452.9 172.75 452.95 172.85 453.15 173.5 453.8 178.6 454.6 183 455.5 184.3 457.15 186.8 458.2 189.4 459.1 191.6 461.75 196.45 463.2 199.05 463.2 201.8 463.2 205.55 464.2 206.7 465.25 207.9 468 206.6 471.6 204.9 472.6 203.4 474.05 201.3 471.2 199 469.55 197.7 467.3 198.1 466.05 198.35 464.6 194.2 463.1 189.9 463.25 189 463.8 185.2 463.8 183 463.8 179.5 465.45 177.7 466.05 177.05 463.2 172.4 460.35 167.85 459.55 163.75 458.65 159.6 457.2 157.2 455.3 154.1 455.95 152.5 457.05 149.75 456.8 147.2 456.45 143.2 455.3 140.7
L 454.2 139 Z
M 222.1 70.5
Q 223.2 70.4 226 70.6 228.35 70.8 229.6 70.5 232.9 69.8 236.9 69.9 240.25 70 243.2 69.8 246.15 69.6 246.9 69.5 249.3 69.15 248.3 68.6 247.3 68.05 248.2 67.75 248.7 67.55 250.1 67.3 250.65 67.15 252 67.1 252.7 66.95 251.3 66.2 250.3 65.65 248.4 65.5 247.8 65.45 249.3 64.8 251.4 63.9 251.15 63.6 250.9 63.3 248.2 63.5 246.35 63.65 245.7 63.25 244.85 62.65 243 62.5 240.4 62.3 239.5 62.3 237.65 62.3 235.2 62.3 232.35 62.3 229.75 62 227.15 61.7 226.7 61.7 225.95 61.7 225.65 61.4 225.2 60.9 223.4 60.4 221.65 59.9 219.4 59.9 216.9 59.8 215.4 59.5 213.45 59.1 211.25 59 207.4 58.85 206.8 58.8 202.35 58.45 199.1 58.9 198.75 58.95 197.6 59.35 196.95 59.55 196.3 59.3 195.75 59.1 195.5 59.05 194.9 58.95 193.5 58.6 191.85 58.2 190.5 58.35 189 58.65 187.9 58.7 186.35 58.75 186.45 58.85 186.5 58.9 188.1 59.4 188.4 59.5 190.2 60.45 191.1 60.95 192.2 60.7 193.45 60.45 193.5 60 193.5 59.7 192.9 59.4 192.4 59.15 193.3 59.25 194.2 59.35 195.2 59.7 197.15 60.4 200 60.4 200.95 60.4 204.1 60.7 204.7 60.75 206.55 60.6 207.15 60.55 206.3 61.2 205.1 62.1 205.15 62.5 205.25 63 207 63.3 208.7 63.55 208.55 64.25 208.35 64.85 207.2 65.1 205.55 65.35 204.25 65.6 201.9 66.05 199.9 67 196.7 68.45 195.6 69 193.85 69.9 194.7 70.2 195.1 70.35 196.3 71.3 197.25 72.05 198.6 72.3 202.2 72.9 205.6 72.1 206.85 71.8 209.35 71.2 211.55 70.7 213.4 70.7 216.3 70.7 222.1 70.5 Z
M 256.9 73
Q 257.4 73 260.1 73.2 261.7 73.3 262.5 73 264.25 72.4 264.35 72.3 264.8 71.95 262.6 71.9 261.6 71.85 258.2 71.55 256.1 71.35 255.1 71.6 254.1 71.85 253.25 71.7 251.75 71.45 251.2 71.4 249.6 71.3 248.85 71.55 248.05 71.75 249.2 72.1 249.4 72.15 250.6 72.7 251.05 72.9 252.2 72.9
L 256.9 73 Z
M 311.8 78.2
Q 305.25 77.55 301.7 76.6 299.05 75.9 295.6 76.2 294 76.35 293.7 76.55 293.45 76.75 294.5 76.9 296.45 77.2 297.7 77.6 298.7 77.95 298.9 78 299.25 78.05 300.5 78.2 301.4 78.3 301.75 78.3 301.8 78.3 303.3 78.8 304.4 79.15 305.5 79.55 306.4 79.85 307.8 80.1 309 80.3 309.75 80 310.5 79.65 311.4 79.8 312.5 79.95 313.3 79.85 314.5 79.7 315 79.7 316.45 79.7 318.55 79.3 320.75 78.85 319.1 78.7 318 78.6 316.6 78.65 315.45 78.65 314.4 78.5
L 311.8 78.2 Z
M 292.4 79.4
Q 294.95 79.4 295.75 79.3 297.5 79.1 296.9 78.4 296.05 77.4 291.5 77.7 290.1 77.8 288 77.8 287.7 77.8 288.5 78.35 289.4 79 288.8 79.2 288.1 79.45 289.15 79.45 289.7 79.45 290.9 79.4
L 292.4 79.4 Z
M 173 47.9
Q 177.1 48.05 179.9 47.6 181.45 47.35 181.75 47.15 182.1 46.9 180.6 46.6 177.65 46.2 176.3 45.95 173.8 45.5 174.8 45.2 175.6 44.95 176.95 44.7 177.65 44.4 176.4 43.4 175 42.25 174.2 42.05 173.55 41.85 172.2 42 170.5 42.2 169.55 42.1 168.25 41.95 169.4 41.3 170.25 40.8 171.3 40.55 171.6 40.35 170.1 39.4 168.6 38.45 167.1 38.4 165.25 38.5 164 38.5 160.6 38.65 158.55 38.7 154.7 38.8 153.8 38.5 152.55 38.1 152.3 37.8 151.9 37.4 152.4 36.7 152.95 35.95 150.95 35.95 148.9 36 147.8 36.8 146.6 37.7 139.2 39.1 131.5 40.55 126.7 40.6 106 40.9 99.9 40.8 98.5 40.8 91.1 40.9 85.7 41 83 40.7 81.4 40.55 71.05 40.55 61.55 40.55 58.3 39.9 54.75 39.2 50.7 38.8 46.65 38.45 45.2 38.3
L 36.3 37.2 115.7 70 123 71.2
Q 128.6 72.4 127 72.4 125.6 72.4 125.25 73.05 124.95 73.7 127.1 73.4 128.9 73.15 130 73.4 131.4 73.7 132.1 73.7 133.15 73.7 135.95 73.75 138.05 73.75 137.5 73.5 136.4 73.4 136.1 73.35 135.7 73.3 136.9 72.4 137.9 71.65 138.85 70.95 139.4 70.6 140.3 70.8 140.5 70.85 142.7 71.8 144.5 72.6 146.1 72.6 146.85 72.6 149 72.35 150.15 72.2 151.2 72.6 152.25 73 154.6 73 157.4 72.95 157.7 73 158.7 73.15 155.35 74 152.05 74.8 150.4 74.9 148.9 74.95 150 75.6 151 76.2 152.9 76.6 154.05 76.85 156.9 77.6 159.4 78.1 160.4 77.8 161.6 77.45 161.4 76.65 161.25 75.9 160 75.6 158.1 75.15 161.5 74.4 163.15 74.05 164.55 73.45 166.5 72.6 166.1 71.9 165.7 71.1 165.8 70.95 165.85 70.85 167 70.1 169.2 68.7 169.3 68.6 170.15 67.8 168.1 67.8 165.65 67.8 163.65 67.15 161.6 66.45 163.1 66.1 164.1 65.85 165.1 65.7 165.5 65.5 164.5 64.5 163.1 63.1 162.85 62.95 162.1 62.5 160.4 62.5 159 62.5 156.35 62.75 153.35 63.05 152.4 63.1 151.25 63.15 148.05 63.65 145 64.1 143.9 64.1 142.6 64.1 141.75 63.75 140.8 63.2 140 62.9 139.05 62.55 137.85 62.6 136.3 62.7 135.1 62.7 130.2 62.7 130.1 60.4 129.8 58.7 129.9 58.1 130 57.25 131.7 56.8 133.25 56.4 134.7 56.5 135.55 56.6 138.1 56.8 139.9 56.85 142.05 57.15 144.55 57.55 145.5 57.6 149.45 57.9 152.1 58.4 153.35 58.65 154.2 59.2 155.1 59.75 155.1 60.4 155.1 61.05 155.55 61.1 155.85 61.1 157.7 60.8 158.85 60.6 159.55 60.4 159.85 60.35 160.7 60.6 161.4 60.8 162.8 61.35 163.95 61.65 164.4 60.9 164.9 60 165.4 59.95 165.85 59.85 167.5 60.3 169.05 60.75 170.75 60.8 172.15 60.85 174.8 60.7 177.25 60.55 178.6 60.8 179.95 61 178.8 61.3 178.1 61.5 178.85 62.35 179.5 63.15 178.3 63.2 176.25 63.45 175.25 63.45 173.65 63.5 172 62.8 170.3 62.1 169.9 62.85 169.6 63.45 170 64.1 171 65.8 171.8 66.1 173.9 66.95 174.6 67.1 176.05 67.45 176.65 67.5 177.9 67.6 179.2 67.2 180.45 66.85 180.55 66.15
L 180.4 65.5 181.35 65
Q 182.3 64.6 182.3 65.3 182.3 66.2 182.55 66.5 182.8 66.85 183.5 66.5 184.9 65.8 187.3 65.8 188.25 65.8 187.45 65 186.7 64.25 185.7 63.8 184.9 63.45 185 63.3 185.15 63.15 186.5 63 187.05 62.95 188.6 63.6 189.3 63.9 189.2 62.4 189.05 60.75 188.9 60.65 188.3 60.6 187.4 60.2 186.8 59.95 185.75 59.05 185.1 58.5 184 58.5 182.8 58.5 181.85 59.15
L 181.1 59.8
Q 184.2 61.9 182 61.2 181.05 60.9 180.75 60.3 180.45 59.8 178.7 59.4 177.05 59.05 176.15 59.65 175.4 60.2 174.4 59.7 173 59.05 174.55 58.3 175.95 57.6 177 57.7 178.25 57.8 180.2 57.7 181 57.65 182.05 57.35 183 57.1 183.7 57.1
L 187.8 57.1
Q 188.85 57.2 189.4 56.95 190 56.65 188.3 56.3 187.2 56.1 185.5 56 184.2 55.9 183.4 55.6 182.65 55.3 182.05 55.65 181.1 56.1 179.7 56.1 177.75 56.1 176.2 55.35 174.65 54.6 176.3 54.7 178.1 54.8 179.8 54.6 181.7 54.4 181 54 180.25 53.55 180.3 53.45 180.35 53.3 181.3 53 181.95 52.8 183.85 52.5 184.95 52.2 182.9 51.5 180.85 50.8 179.8 50.75 178.5 50.8 177.1 50.7 171.5 50.3 171.4 50.3 170.55 50.3 171 51.4 171.35 52.3 170.4 52 169.15 51.6 168.1 51.55 167.75 51.5 166.3 51.5 164.55 51.5 163.05 51.3 160.9 51 162.1 50.5 163.05 50.1 164.4 49.65 165.1 49.25 164 48.4 162.65 47.35 162.8 46.95 162.95 46.5 165.1 46.7 166.9 46.9 167.75 46.7 168.8 46.5 169 46.5 170.2 46.5 173 47.9 Z
M 115.7 70
L 115.85 83.65
Q 115.8 97.6 114.8 99.2 114.2 100.2 114 102.25 113.85 103.3 112.4 103.2 110.8 103.1 110.5 104.7 110.3 105.6 110.2 107.4 110 108.1 108.8 111.1 107.85 113.85 108.6 114.6 109.4 115.4 108.75 117.35 108.35 118.5 106.8 121.4 105.85 123.25 104.55 125.05 103.85 126.05 102.6 127.8 101.3 129.75 101 130.65 100.35 132.45 101 134.4 103.95 143.2 102.8 146.6 102.35 148 103.25 151.5 103.95 154.3 102.8 154.6
L 100.95 155.1
Q 100.7 154.8 100 150.2 98.3 139.1 98 137.4 97.8 134.85 97.5 134.05 97.05 132.85 94.6 131.4 93.35 130.65 89.9 130.05 87.35 129.6 85.2 127.2 82.3 124 80.3 123.8 78.25 123.6 76.6 126.4 75.25 128.7 75.35 131.6 75.4 133.15 75.6 135.6 75.6 135.75 74.3 138.85 73.3 141.15 74 144 74.55 146.15 75.1 150.75 75.55 154.4 76.2 155.8 77.7 159.05 78.3 159.95 79.7 162.2 81.4 162.6 83.2 163 84.6 162 85.65 161.25 87.2 159 88.55 157.05 89.95 157.7 91.3 158.35 91.6 161.2 91.9 164.1 91.7 166 91.45 168 90.4 170.8 89.1 174.3 89.15 175.45 89.25 177.3 91.8 178.4 93.7 179.2 95.15 178.95 95.8 179.2 96.8 183.8 97.95 189.2 98.15 190.85 98.3 192.3 98 194 97.25 198.1 97.25 198.2 97.05 200.9 98.6 201.8 99.7 202.45 100.7 204 101.45 205.2 102.6 205.4 103.9 205.65 103.8 206.95 103.55 209.2 103.6 209.4 103.95 210.85 103.3 211.75 102.6 212.65 101.8 210.6 101.1 208.6 100.85 208.1 100.6 207.6 99 205.6 96.6 203.2 95.7 202.3 94.2 200.75 94.2 198.8 94.2 196.9 94.05 196.45 92.65 192.75 92.2 191.4 91.05 187.9 89.4 187 87.55 186 86.4 183 85.15 179.75 84 177.95 82.95 176.25 82.2 174.2 80.85 170.5 80.25 169.45 79.4 167.95 78 167.4 76.35 166.75 75.35 165.7 74.05 164.3 71.8 160.4 67.6 153.05 66.85 151.55 64.2 146.2 63.4 141.8 62.1 134.4 62.1 134.3 61.5 131.45 60.6 128 60.45 127.55 58.75 121.6 57.7 118.2 57 114.6 55.9 108.75 55.4 106.2 54.5 101.8 53.6 99.4 52.5 96.7 52.25 95.9 51.95 94.9 51.8 92.4 51.65 89.35 50.15 86.8 48.6 84.25 48.6 87.8 48.6 90.45 50.2 94.9 51.8 99.35 51.8 101.2 51.8 103.75 52.1 105.55 52.25 106.65 52.8 109.4 53.15 111.25 53.7 113.25 54.25 115.3 54.4 116.2 54.75 118.15 53.4 116.25 52.1 114.35 51.8 111.6 51.7 110.4 51.95 108.7 52.05 107.9 51 105 50.1 102.55 49.55 99.95 49.1 97.9 48.4 96.4 47.6 94.7 47.7 93.2 47.8 91.1 47.6 90 47.25 88.25 47.05 86.05 46.7 83.05 46.6 82.2 45.75 76.35 45.6 73.4 45.5 71.3 44.8 69.9 43.55 67.45 43.2 66.4 42.7 64.95 41.8 62.85 41.2 61.55 41 60.2
L 40.6 57.8
Q 40.6 54.9 40.1 51.85 39.45 48.25 39.4 47.4 39.3 45.55 37.8 41.2
L 36.3 37.2
M 163.6 359.6
Q 165.3 364.65 161.4 377.6
L 159.8 384.85
Q 158.05 392.5 157.4 394.6 157.1 395.55 155.75 397.8 154.75 399.45 154.4 402.8 154 406.6 152.25 408.15 151.4 408.9 149 409.6 147.75 410 145.15 411.25
L 142.8 412.4 141.15 415.35
Q 139.35 418.45 138.6 419.2 136.95 420.85 136.6 428.2 136.5 430.1 135.4 435.2 134.5 439.4 134.8 440.8 135.25 442.8 135.2 444 135.15 445.25 134.4 447.6 134.3 447.9 133.35 452.05 132.85 454.3 132 455 129.65 457 129.2 457.25 127.15 458.25 125.6 456.2 124 454.05 123.2 454.35 122.75 454.5 122 456.2 121.2 458 120 459.6
L 97.4 431.6 101.6 413.2
Q 103.95 402.95 104.2 401.6 104.55 399.9 106.6 387.8 107 385.35 109 375.25 110.2 369.1 110.2 367 110.2 363.4 109.55 358.55 108.65 352.35 107.2 349 104.75 343.85 103.7 341 101.8 336.05 101.8 331.8 101.8 329.05 100.7 321.95 99.6 314.85 99.6 308.8 99.6 302.05 98.75 296.95 97.6 291.2 97 287 95.9 280.05 95.55 277.75 95 274.15 95 271.2 95 269.35 95.7 267 96.15 265.25 95.6 262 95.05 258.7 96.35 254.2 97.8 249.05 97.8 247.6 97.8 245 98.7 241 99.9 235.8 100.6 232.4 102.45 223.4 104.1 219.5 104.75 217.95 104.85 217.25 104.95 216.35 104.6 214.8 104.3 213.45 103.75 212.65
L 103.3 212.15 104.1 210.8 104.65 211.1
Q 105.25 211.2 105.35 210.3 105.45 209.55 105.9 208.35 106.35 207.25 106.35 206.85 106.35 206.55 106.7 205.9 107.05 205.2 107.2 203.9 107.35 202.3 107.35 201.95 107.4 201.55 107.95 200.7 108.4 199.85 108.55 199.7 108.7 199.6 109.95 199.3 111.3 198.9 111.8 198.25 112.1 197.85 112.6 196.5 113.1 195.15 114.05 194.8 115.05 194.4 114.55 196.4 114.2 197.85 113.3 198.85 112.6 199.6 112.75 200.55 113 202.15 113.75 202.4 114.5 202.7 115 200.85 115.55 198.75 115.95 198.55 116.35 198.3 116.4 200.3 116.45 201.9 116.7 202.5 117.15 203.55 117.35 204.35 117.55 205.1 117.8 207.35 117.9 208.65 118.35 208.95 118.45 209.05 119.4 208.85 120.05 208.75 120.5 210.25 120.8 211.15 121 212.6 121.05 213.05 121.6 213.1 123.45 213.3 123.3 211.3 123.25 210.15 123.6 210.5 123.85 210.8 124.85 212.5 125.5 213.65 125.45 214.35 125.4 215.25 125.65 216 125.8 216.45 127.2 218.05 128.35 219.35 128.5 221.4 128.6 222.5 128.55 223.85 128.5 224.4 129.05 226.95 129.5 228.9 130.25 230.4 130.85 231.5 131.1 234 131.25 235.55 131.25 238.65 131.2 240.1 131.95 241.05 132.5 241.75 133.6 242.6 134.7 243.5 135.9 244.95 137.15 246.5 137.4 247.7 137.75 249.35 138.1 250 139.2 252.05 139.6 254 140.25 258 140.2 262.65 140.15 266.3 140.6 267.4 141.1 268.6 142.15 270.5 142.85 272.4 142.2 275.8 141.55 279.45 141.75 280.4 141.9 281.2 143.2 283.6 144.8 287.2 148 294.8
L 152.35 296.6
Q 157.25 298.5 160 299 163 299.55 165.65 302 167.7 303.85 169.8 307.2 171.15 309.35 174.15 310.4 177.45 311.55 178.2 312.4 179.55 313.9 179.95 316.75 180.2 318.55 180.2 323.2 180.2 326.2 177.35 331.6 175.85 334.4 173.6 338.6 173.25 339.5 170.8 343.6 168.85 346.9 168.6 349.2 168.4 351 165.5 354.55 162.95 357.65 163.6 359.6 Z
M 148 294.8
L 142.8 412.4
M 495 82.8
L 317.6 85"/>

<path id="Layer6_0_1_STROKES" stroke="#000000" stroke-width="2" stroke-linejoin="round" stroke-linecap="round" fill="none" d="
M 158.85 87.55
L 494.8 82.4 298.4 35.2 21.8 31.2 158.85 87.55 138 482.2 446.2 416.2 494.8 82.4
M 138 482.2
L 18.4 333.6 21.8 31.2"/>

<path id="Layer5_0_1_STROKES" stroke="#000000" stroke-opacity="0.2" stroke-width="2" stroke-linejoin="round" stroke-linecap="round" fill="none" d="
M 18.4 333.6
L 278 299.775 298.4 35.2
M 446.2 416.2
L 278 299.775"/>

<path id="Layer2_0_1_STROKES" stroke="#000000" stroke-width="1" stroke-linejoin="round" stroke-linecap="round" fill="none" d="
M 488.725 124.1
L 156.25 136.85 21.375 69.025
M 482.65 165.85
L 153.65 186.2 20.95 106.8
M 476.575 207.55
L 151.05 235.5 151.025 235.475 20.525 144.625
M 470.5 249.3
L 148.45 284.85 148.425 284.825 20.1 182.4
M 464.425 291
L 145.85 334.15 19.675 220.225
M 19.25 258
L 143.225 383.5 458.35 332.75
M 315.25 39.25
L 41.375 39.25
M 470.85 76.65
L 141.7 80.5
M 107.4 66.4
L 423 65.15
M 373.95 53.35
L 75.65 53.35
M 399.1 59.4
L 90.3 59.375
M 446.95 70.9
L 124.55 73.45
M 60.95 47.3
L 348.75 47.3
M 452.275 374.45
L 140.6 432.85 18.825 295.825"/>

<path id="Layer1_0_1_STROKES" stroke="#000000" stroke-width="1" stroke-linejoin="round" stroke-linecap="round" fill="none" d="
M 253.55 457.45
L 284.75 85.65 125.5 32.7
M 73.15 52.325
L 63.25 389.3
M 33.35 352.15
L 38.9 38.25
M 176.5 473.95
L 200.8 86.9 56.35 31.7
M 90.95 32.2
L 242.8 86.25 215.05 465.7
M 56.05 45.3
L 48.3 370.75
M 330.6 440.95
L 368.8 84.35 194.65 33.7
M 292.1 449.2
L 326.8 85 160.1 33.2
M 407.65 424.45
L 452.8 83.05 263.8 34.7
M 369.15 432.7
L 410.8 83.7 229.25 34.2
M 141.7 80.5
L 123.05 463.6
M 93.15 426.45
L 107.4 66.4
M 108.1 445.05
L 124.55 73.45
M 78.2 407.9
L 90.3 59.375"/>
</defs>

<g transform="matrix( 1, 0, 0, 1, 0,0) ">
<use xlink:href="#Layer7_0_1_STROKES"/>
</g>

<g transform="matrix( 1, 0, 0, 1, 0,0) ">
<use xlink:href="#Layer6_0_1_STROKES"/>
</g>

<g transform="matrix( 1, 0, 0, 1, 0,0) ">
<use xlink:href="#Layer5_0_1_STROKES"/>
</g>

<g transform="matrix( 1, 0, 0, 1, 0,0) ">
<use xlink:href="#Layer2_0_1_STROKES"/>
</g>

<g transform="matrix( 1, 0, 0, 1, 0,0) ">
<use xlink:href="#Layer1_0_1_STROKES"/>
</g>
</svg>
