
<svg xmlns="http://www.w3.org/2000/svg" version="1.1" xmlns:xlink="http://www.w3.org/1999/xlink" preserveAspectRatio="none" x="0px" y="0px" width="512px" height="512px" viewBox="0 0 512 512">
<defs>
<path id="Layer12_0_1_STROKES" stroke="#000000" stroke-width="0.5" stroke-linejoin="round" stroke-linecap="round" fill="none" d="
M 362.4 119.9
Q 362.6 120.2 366.3 124.55 368.85 127.55 370 129.4 372.4 133.3 373.4 135.6 374.75 138.6 370.6 133.1 367.25 128.65 364.55 126.15 362.75 124.5 361.9 122.7 360.95 120.7 359.85 119.2 358.95 117.95 358.6 117 358 115.3 358 114.55 357.95 113.6 358.7 114.6 359.25 115.35 359.6 116.1 359.85 116.9 360.3 117.4
L 362.4 119.9 Z
M 293.9 258.8
Q 290.05 255.85 288.95 255.1 287.45 254.05 286.3 253.7 285.25 253.35 284.55 251.7 284.35 251.15 283.4 248 283 246.65 282.55 246.5 281.5 246.1 279.9 244.3 277.9 242.05 277.05 241.8 276.25 241.9 275.5 241.7 274.65 241.9 274.55 241.8 274.45 241.1 273.9 239 273.35 236.9 272.9 236.75 272.9 236.7 273.2 234.9 273.35 234.1 273.85 232.7 273.85 232.65 273.2 230.9 272.4 228.65 272.4 228.3 272.4 228 273.4 226.7 274.05 225.85 274.45 225.55 274.65 225.35 275 223.6 275.35 222.05 275.5 221.8 275.7 221.5 275.9 220.7 276.45 219.7 276.55 219.35 276.75 218.9 276.3 216.5 276.05 214.95 276.05 213.6 276.05 212.95 275.3 211.1 273.8 208.2 273.4 206.95 272.65 204.8 274 202.6 274.9 201.05 275.3 199.85 275.5 199.25 276.7 198 279 195.6 279.05 195.55 279.7 194.6 279.7 192.9 279.7 191.1 279.9 190.55 280 190.2 280.7 189.5 281.65 188.6 283.2 185.6 283.75 184.55 284.5 184.3 285 184.15 286.5 183.7
L 288.3 182.9
Q 288.9 182.55 290.1 181.2 291.3 179.85 291.7 178.15 292 176.9 291.9 175 291.8 172.9 292.3 170.6 292.9 167.65 294.1 167 296.4 165.75 297.1 165.2 298.75 164 298.9 162.9 299.1 161.25 299.6 160.2 300.25 158.8 301.2 159.2 302.85 159.9 303.05 159.95 304.15 160.25 306.1 160.2 308.5 160.1 309.4 159.95 310.45 159.8 311.3 159.2 311.4 159.1 311.9 158 312.2 157.25 314.6 156.7 318.6 155.8 316.4 155.8 318.75 155 318.8 154.9 318.95 154.9 322.4 154.5 326 154 326.05 154.1 326.1 154.15 327 154 328.3 153.75 328.65 153.9 328.8 153.95 330.1 153.5 331.35 153.05 331.55 152.3 331.65 151.95 332.7 152.4 333.75 152.85 334.2 151.3 334.35 150.65 334.9 152.7 335.55 155.1 335.05 155.25 334.9 155.3 335.7 155.7 336.6 156.4 337.4 156.5 337.65 156.65 337.3 158.6 337.15 159.5 336.15 161.75 335.85 162.5 337.1 162.5 338.2 162.5 339 162.4 339.35 162.5 339.8 163.6 340.15 164.45 340.1 164.55 340.45 164.3 341.3 164.4 341.95 164.45 341.65 164.35 341.3 164.25 343.5 164.4 344.996484375 164.5150390625 345.375 164.525 345.1625 164.5787109375 346.3 165
L 346.6 164.75
Q 347.1 164.7 348.1 165.9 348.3 166.15 349.4 168.05 349.8 168.8 351.1 168.9 352.8 169.05 354.9 169.7 355.55 169.9 357.25 170.95 358.45 171.4 357.7 168.9 355.9 162.9 356.8 162.5 357.15 162.35 357.05 161.4 357.25 160.8 359.3 162 360.7 162.8 361.45 163.65 361.65 163.9 363.4 164.1 365 164.3 365.7 164.4
L 367.7 164.4
Q 369.9 164.4 370.1 164.3 370.35 164.15 370.8 162.7 371.1 161.8 373.1 161.45 374.85 161.15 374.6 159.9 374.35 158.75 373.95 157.6 373.35 156.1 372.8 153.9 372.2 151.7 371.45 150.85 370.5 149.9 369.9 148.1 369.25 146.25 368.9 147.45 368.35 149.25 367.3 148.5 365.55 147.25 364.6 147 363.5 146.65 363.9 147.8 364.35 149 363.75 149.2 363.15 149.4 361.8 148.5 360.4 147.95 359.9 147.7 359 147.3 357.8 145.1 356.5 142.55 356.2 142.05 355.9 141.45 354.9 140.6 353.55 139 352.9 138.5 351.85 137.6 350.6 138.6 349.05 139.85 349.1 140.75 349.15 141.7 351.1 143.3 352.45 144.4 353.6 145.1 354.2 145.55 354.8 146.9 355.65 148.75 355.1 150.85 354.55 152.95 353.3 150.7 352.15 148.7 351.25 147.65 350.1 146.5 349.2 145.5 348.3 144.5 346.8 143.15 345.5 142.05 345.1 141.5 344.9 141.2 344.4 140.05 343.95 139 342.9 137.8 341.75 136.45 340.5 135.85 338.6 135.05 336.9 134.3 334.7 133.35 333.7 132.7 332.45 131.8 331.3 131 329.45 129.75 329 130.55 328.45 131.4 330.4 133.5 332.2 135.4 333 135.95
L 335 136.9
Q 335.75 137.25 336 137.6 336.25 137.95 338 138.7 340.1 139.6 340.2 139.65 340.45 139.8 341.9 140.7 343.7 141.75 344.3 142.6 344.9 143.4 343.5 142.5 342.3 141.7 341.95 142.7 341.6 143.6 342.5 144.5 343.35 145.35 343.55 145.95 343.75 146.6 343.3 147.7 342.75 149.1 342.6 149.7 342.4 150.65 342.6 151.6 342.75 152.3 343.35 153.75 343.45 154.45 341.4 152.7 339.6 151.2 339.6 151.8 339.5 152.45 338.5 151.7 334.65 148.85 338.4 148.7 340.3 148.65 340.8 147.7 341.25 146.95 340.9 145.2 340.6 143.5 340.55 143.5 340.35 143.3 337.8 142.3 335.3 141.35 334.4 140.9 334.05 140.7 331.7 139.3 330 138.3 329.6 137.9 328.95 137.15 327.8 136 325.85 134.05 323.75 133.25 321.4 132.3 320.4 133.6 319 135.45 318.85 135.6 318.2 136.15 316.8 135.8 315.1 135.4 314.15 136.1 313.15 136.85 314 138.4 315 140.2 315 140.45 314.95 140.95 313.4 141.7 312.05 142.35 311.75 143.05 311.45 144.1 310.9 145.1 310.35 146.1 309.8 146.95 309.6 147.45 310.3 148.5 310.85 149.3 311.25 149.6 311.25 149.7 310.8 151.3 310.4 152.65 310.15 152.75 309.45 153.05 308.9 153.7 308.45 154.2 308.55 155.6 308.55 156.2 306.2 156.2 304.85 156.2 303.1 156.1 302.85 156.05 302.1 156.4 300.95 157.4 300.4 157.7 299.45 158.25 298.5 156.7 297.6 154.9 297.35 154.75 297.2 154.65 295.4 155 292.9 155.5 292.8 155.5 291.95 155.3 291.1 153.1 290.25 151 289.85 150.5 289.35 150.2 288.9 149.8 288.5 149.45 288.85 148.75 289.5 147.5 289.6 145.4 289.7 143.3 289.6 143.25 289.3 143.1 289.1 141.7 288.95 140.75 287.8 138.55 287.2 137.4 288.3 136.4 289.4 135.45 290.1 135.6 291.9 136.05 293.2 136 296.9 135.9 299.5 135.6 300.75 135.55 301.8 135.5 302.25 135.2 302.3 132.5 302.35 129.9 302.3 129.8 301.15 129 299.1 126.9 296.7 124.45 296.05 124.3 294.95 124.05 294.3 123.6 292.6 122.4 292.75 122 292.85 121.7 294.9 120.9 296.1 120.45 297.15 120.15 298 119.95 299.2 119.4 300.45 118.85 301.15 116.95 301.9 114.9 302.5 114.5 303.25 114 304.1 114 304.45 113.85 304.1 112 303.7 109.85 303.9 109.2 304.05 108.7 305 108.2 306.45 107.5 306.55 107.35 306.95 106.65 305.6 104.9 303.7 102.7 303.25 102 302.55 100.95 303.2 100.1 303.9 99.2 304.3 99.25 304.4 99.25 306.2 100 308.05 100.8 306.4 98.85 304.85 97 302.5 96.5 300.55 96.1 300.3 96.8 299.95 97.75 299.4 97.9 298.3 98.45 297.9 98.3 297.45 98.2 295.7 96.1 294.5 94.65 293.25 94.4 292.5 94.25 292.1 92.4 291.35 89.7 291.25 89 291.1 88.1 291.9 87.4 293.5 85.9 292 83.2 291.45 82.2 290.35 80.7 289.25 79.2 289 78.7 288.25 77.8 288.2 77.2 288.1 76.2 289.9 74.2 290.95 73.05 291.1 72.95 291.25 72.85 291.45 73.3 292.15 74.9 295.2 75.3 298.45 75.75 299.1 75.5 299.8 75.2 301 75.3 303.85 75.55 304.45 75.35 305.4 75.05 304.3 73.4 303.15 71.65 303.85 71.45 304.55 71.25 306.5 72.4 306.7 72.55 312.55 75.55 317.7 78.2 321.5 80.7 327.05 84.35 335.3 90.75 344.6 97.9 348 101.5 356 110 362.9 118.5 375 133.4 380.1 144.1 391.3 167.5 394.8 183 396.45 190.3 397.6 201.05 398.6 210.95 398.7 218.3 398.8 226.85 398.1 236.15 397.25 247.85 395.4 254.9 394.05 260.1 391.9 268.6 389.95 275.55 387.3 282 384.5 288.85 382.5 292.85 381.35 295.15 377.5 302 374.1 308.35 372.65 310.75 370.5 314.5 367 319 362.9 324.75 361.5 326.7 359.2 329.85 355.8 332.8 353.55 334.75 351.05 338 349.35 340.2 346 342.2 343.35 343.8 341.3 345.35 340 346.35 337.2 347.7 332.45 350 332.25 350.05 331.35 350.25 332.8 348 334.2 345.9 334.45 345.45 334.55 345.25 335.4 343.2 335.9 342 335.8 341 335.7 340.05 336.8 337.4 337.8 335.05 337.9 334.4 337.95 334.3 338.8 332.8 340.1 330.55 340.5 328.7 340.95 326.7 340.5 324.5 339.95 321.8 340.05 320.9 340.2 319.2 341.9 315.3 343.5 311.7 344.45 310.4 345.05 309.6 346.6 307.9 351.05 302.35 350.7 298.8 350.55 297.3 351 295 351.45 292.55 351.3 290.1 351.35 286.55 351.2 285.4 350.95 283.8 349.1 281.6 346.85 278.95 346.3 276.55 345.7 273.9 346.7 270.4 346.85 269.85 349.25 265.7 350.25 263.85 348.6 261.1 346.6 257.75 346.45 257.7 345.45 258.05 343.6 258.6 340.85 260.05 340.15 260.15 339.25 260.25 337.9 256.8 336.4 252.9 335.95 252.75 335.7 252.65 331.4 253.9 328.1 254.85 328.1 254.9 327.85 255.35 325.8 256.7 320.8 260 318.7 260.6 318.3 260.7 317.05 260.15 315.6 259.5 312.7 259.8 309.85 260.1 309.3 260.3 307.05 261.15 305.1 261.7 301.1 262.85 300.3 262.65 299.3 261.95 298 261.2
L 293.9 258.8 Z
M 351.3 130.1
Q 349.85 126.4 349.6 123.65 349.4 121 350.4 121.8 351.2 122.45 351.25 123.3 351.25 123.7 351.1 124
L 350.65 124.35
Q 350.4 124.75 351.5 125.1 352.8 125.55 352.95 125.55
L 354 125.2
Q 355.05 124.9 355.45 124.35 355.85 123.8 355.2 123.3 354.55 122.8 354.7 121.75 354.85 120.65 355.4 121.5 355.65 121.9 355.5 122.75 355.4 123.35 356.4 123.8 357.1 124.1 357.95 124.1 358.35 124.1 359.1 125 359.75 125.8 360.7 126.7 361.8 127.75 362.7 128.8 364.05 130.4 364.05 131.6 364 132.8 362.5 132.7 358.35 132.5 357.4 135 357 136.05 356.9 136.95 356.7 137.4 355.6 137.7 354.45 138.35 354.3 138.3 354.25 137.75 354 136.2 353.7 134.45 353.3 134.15 352.55 133.6 352.2 132.9 351.6 131.65 351.4 130.75
L 351.3 130.1 Z
M 393.7 204.6
Q 393 203.15 392.15 201.05 391.45 199.45 391 198.7 390 197.5 389.55 196.85 388.7 195.8 388.5 194.5 388.35 192.6 388.25 191.85 388.1 190.55 387.4 189.7 386.8 188.95 386.1 187.7 385.3 186.2 384.8 185.5 384.3 184.8 384.25 183.5 384.2 182.25 383.4 181.2 382.7 180.25 382.1 178.25 381.6 176.5 380.9 175.9 380 175.15 379.7 174.5 379.4 173.6 379.1 172.9 378.7 172 378 171.2
L 376.9 170.1
Q 376.4 169.6 377.2 170 377.95 170.35 378.6 171 378.85 171.25 379.4 172.05 379.5 172.2 379.5 171.5 379.5 170.4 379.75 170.55 380.15 170.7 381.3 173 382.15 174.7 382.55 175.9 382.9 176.6 384.2 178.1 385.6 179.7 386.7 182.05 386.9 182.55 388.1 185.7 388.5 186.75 388.85 188 389.25 189.1 390.3 190.7 391.3 192.25 391.85 193.65 392.75 196.05 393 196.6 393.6 197.9 394.1 198.95 394.3 199.5 394.3 201 394.3 203.2 395 206 395.1 206.85 395.35 208.85 395.4 210.1 394.5 208.1 393.65 206.15 393.6 205.2
L 393.7 204.6 Z
M 243.6 77.3
Q 246.4 77.15 248.9 76.15 251.5 75.1 248.4 74.9 245.6 74.7 246.55 74.2 247.05 73.95 248.1 73.7 251.3 75 251 74.1 250.85 73.7 250.7 73.7 250.45 73.6 250 72.8 249.5 71.85 250.15 71.3 250.5 71 250.9 70.9
L 251.3 71
Q 251.7 70.7 251.7 68.7 251.7 66.8 251.4 66.85 250.7 67 250.6 66.9 250.3 66.6 250.45 65.45 250.65 64.4 250.1 64.2 249.3 63.9 249.25 63.3 249.15 62.65 250 62.3 252.5 61.25 250 61.6 249.05 61.75 248.7 61.1 248.25 60.3 246 60.1 243.2 59.4 240 59.5 239.55 59.5 235.5 59.85 233.25 60.05 232.7 59.7 231.9 59 231.35 58.65 230.35 58 228.9 57.8 227.7 57.65 226.55 57.75 224.5 57.9 222 57.9 218.55 57.85 217.95 57.9 217.6 57.9 215.5 58.3 214.7 58.45 212.15 59.2 210.8 59.6 209.7 59.4 208.5 59.2 207.65 59.3 206.7 59.5 206 59.6 203.95 59.45 202.9 59.4 201 59.25 201.7 60.2 202.3 61 202.95 62.2 203.55 62.95 205.2 62.9 207.1 62.85 208.1 62.5 209.05 62.15 208.1 62 207.05 61.8 207.4 61.6 207.7 61.35 209.5 61.6 211.6 61.9 211.85 61.9 212.25 61.9 213.7 61.4 214.9 61 216.15 60.95 217.8 60.95 218 60.9 218.45 60.8 219.15 60.35 219.7 59.9 220.7 59.9 222.2 59.9 223.35 60.35 224.5 60.85 222.5 60.9 220.65 60.95 220.4 61.05 219.95 61.4 218.9 61.9 217.35 62.65 217.15 63.35 216.95 64 218.3 64 220 64 220.8 64.6 221.8 65.4 220.7 67.1 218.45 70.65 220.2 70.5 221.2 70.4 221.55 71.9 221.85 73.25 220.1 72.3 218.25 71.3 216.9 71.3 215.6 71.3 215.6 72.2 215.6 72.8 215.35 73.6 215.3 73.95 216.5 73.6 218.15 73.1 219.05 73.15 220.1 73.2 218.7 74.1 217.7 74.75 218 75.1 218.45 75.6 217.8 76.4 217.05 77.8 216.85 78.05 216.6 78.35 215.4 77.9 213.95 77.35 213.05 77.55 212.1 77.7 212.3 78.6 212.4 79.1 211.9 81.2 211.4 83.15 211.8 84 212.15 84.75 212.45 85.05 212.75 85.4 213.1 86.2 214.35 89 216 88.3 216.5 88.1 216.75 89.5 216.95 91 218 90.8 218.4 90.7 219.4 91 219.6 91.1 220.6 89.5 221.8 87.6 222.1 87.3 222.2 87.2 223.7 86.3 225.5 85.2 225.55 85.15 226.05 84.7 226.4 83.5 226.7 82.35 227.55 82.05 228 81.85 228.9 81.7 228.95 81.7 229.8 81.85 230.6 82 232.7 81.2 234.25 80.65 235.85 80.3 236.65 80.1 237.4 79.5 238.1 78.95 238.65 78.5 239 78.25 240.3 77.9 242.3 77.4 243.6 77.3 Z
M 256.7 81.9
Q 258.15 82.1 259.7 82.15 260.7 82.3 261.5 83.1 262.15 83.75 263.1 84.45 263.45 84.95 262 85.7 259 87.3 257.4 87.5 256.7 88 256.55 88.05 256.45 88.1 255.1 86.6 254.05 85.4 255.1 84.6 255.55 84.2 253.1 83.7 252.15 83.5 248.6 83.1 248 83 249.3 82.3 250.1 81.9 250.8 80.95 251.05 80.6 252.4 80.9 254.8 81.4 256.7 81.9 Z
M 308.4 89.5
Q 307.55 88.45 306.35 86.55 305.35 85 304.5 84.1 303.15 82.65 302.2 82.4 301.15 82.15 302 84 302.5 85.15 302.85 86.75 303.1 87.8 303.8 88.7 304.55 89.65 305.15 90 306.3 90.65 307.1 91.3 307.7 91.8 309.8 92.8 310.95 93.35 311.1 94.5 311.25 95.4 311.1 96.2 310.95 96.9 311.2 98 311.4 98.95 312.45 98.95 313.25 98.95 313.2 100.6
L 313.15 101.7
Q 312.85 100.95 311.7 102.4 310.15 104.4 310.3 104.9 310.5 105.4 312.9 105.4 314.95 105.4 316.25 105 316.95 104.8 318 104.3 318.6 104.1 320.2 103.9 321.35 103.55 320.6 102.3 319.65 100.7 319.25 100.2 318.75 99.55 317.4 98.1 315.05 95.65 316 94.1 316.25 93.7 318.45 92.6 320 91.65 317.9 91.4 316.2 91.2 314.7 91.85 313.6 92.35 312.5 91.8
L 308.4 89.5 Z
M 296.1 116.1
Q 295.05 115.9 294.05 116.45 292.35 117.35 292.2 117.4 291.05 117.8 290.25 117.35 289.45 116.85 290.1 116 290.75 115.1 290.45 114.3 290.1 113.55 289.2 113.6 288.65 113.65 288.75 112.85 288.95 111.6 288.3 110.6 287.7 109.65 288.9 109.1 290 108.6 289.2 107.8 287.9 106.5 285.1 104.3 284.45 103.75 283.9 103.5 283.45 103.25 282.8 102.7 280.9 101.1 280.75 100.9 279.8 99.85 280.7 99.2 282.2 98.1 282.85 97.9 284.1 97.5 285 98.4 285.65 99.05 286.3 100.65 286.85 102.05 287.7 102.7 288.3 103.15 288.65 104.05 288.85 104.65 290.3 105.1 291.7 105.5 292.45 106.25 293.3 107.05 294.3 107.4 295.4 107.8 296.25 107.85 296.75 108 297.8 109.4 298.65 110.55 299.65 111.75 300.15 112.5 300.1 113.6 300 115.3 299.9 115.5 299.6 116.1 298.2 116.1
L 296.1 116.1 Z
M 154.75 357.3
Q 153.75 357.45 151.25 356.85 150.25 356.2 149.45 356.2 148.85 356.2 148.75 356.75 148.7 357.3 149.3 357.7 150.25 358.3 147.65 358.85 146.5 359.1 147.35 360.6 147.65 361.1 147.9 361.25 148.4 361.4 148.75 361.75 149.15 362.1 149.15 363.15 149.2 364.25 149.95 365.1 150.85 366.05 149.95 366.4
L 148.85 366.5 147.5 365.35
Q 146.65 364.65 145.95 364.3 145.2 364.05 144.7 363.8
L 142.3 362.55
Q 141.35 362.05 141.2 361.75 140.9 361 140.4 360.35 139.9 359.75 139.55 358.95 139.4 358.6 138.45 358.1 137.3 357.55 136.6 356.95 136.5 356.85 134.3 354.8 133.15 353.75 131.85 352.15 130.7 350.8 129.7 349.95 128.35 348.8 126.55 346 125 343.55 124.15 341.55 121.35 335.9 119.85 331.9 118.55 328.35 113.6 310.2 112.2 305 108.3 300.6 103.95 296.5 102.5 294.95 100.55 292.9 98.55 289 96.9 285.7 96.4 283.7 96.15 282.7 95.5 281.25 94.45 278.95 93.2 275.65 91.7 271.6 89.35 266.25 87.6 262.25 86.95 260.95 86.7 260.45 86.75 259.75 86.85 258.8 86.9 258.15 86.95 257.6 86.8 257.65 86.55 257.7 86.25 256.5 85.9 255.15 86.05 254.95 86.5 254.75 86.9 254.25 87.4 253.65 87.35 252.9 87.25 251.95 87.25 251.15 87.3 250.2 87.05 249.85 86.75 249.5 86.5 249 86.2 248.4 86.55 247.45 87.1 246.15 87.45 245.2 87.85 244.25 87.95 243.35 88.05 242.6 88.3 242.15 88.6 241.65 89.45 240.9 90.2 240.25 90.3 239.95 90.45 239.4 93.15 236.35 93.8 235.6 93.9 234.15 93.95 232.2 94 232.1 94.2 231.4 94.1 229.9 93.95 227.85 93.85 226.55 93.8 225.25 93.9 224.45 94 223.85 93.9 222.95
L 93.5 220.45
Q 93.35 219.65 93.6 219.55 93.9 219.4 93.9 218.9 93.95 218.35 93.65 218.4 93.1 218.45 92.6 218
L 92.2 217.55
Q 92.35 217.8 91.8 217.8 91 217.95 90.8 217.9 90.6138671875 217.9 90.475 217.675 90.5240234375 218.00546875 90.55 218.5
L 90.8 220.25
Q 90.9 221.1 90.9 221.25 90.85 221.65 90.25 221.6 89.55 221.5 89.4 221.35 89.15 221.15 88.65 220 88.3 219.25 88.3 218.8 88.3 218.65 87.9 218.35 87.5 218.05 87.3 217.5 87.05 216.8 86.7 216.35 86.25 215.7 86.15 215.6 86.1 215.5 85.55 215.2 85 214.85 84.95 214.75 85.1 214.4 85.25 213.85 85.6 212.5 84.95 211 84.75 210.6 84.05 210.25 83.5 210 83.4 208.9 83.3 207.8 83.6 206.75 83.9 205.65 83.9 205.15 83.85 204.4 83.7 203.85 83.55 203.35 83.5 203.1 83.5 203.05 83.5 202 83.5 201.05 83.25 200.25 82.9 199.3 80.8 194.6 79.15 190.95 79.15 188.85 79.15 187.15 79.1 186.65 79 185.75 78.65 184.6 78.2 183.3 78.05 183 77.8 182.65 77.35 182.7 76.1 182.8 75.95 181.45
L 75.95 179.85
Q 75.9 178.75 75.5 177.45 74.55 174.5 75.3 172.85 75.6 172.25 75.55 171.5 75.5 170.55 75.5 169.75 75.5 168.95 75.95 167.55 76.35 166.15 76.35 165.55 76.35 164.95 76.85 163.9 77.4 162.7 77.55 161.7 77.7 160.55 78.15 159.65 78.85 158.25 78.9 158.05 78.9 158 79.65 156.6 80.15 155.7 80.35 154.05 80.55 152.3 80.7 151.9 81 151.4 81.35 150.45 81.55 149.9 82 149.05 82.15 148.65 82.4 147.55 82.55 146.35 82.6 146.05 82.65 145.75 83.35 144.45
L 83.65 143.85 83.4 144.2
Q 82.95 144.9 83.95 142.75 86.35 137.65 90 132.45 92.45 128.55 94.4 125.65 96.45 122.65 100.35 117.55 101.65 115.85 110.1 106.7 119.1 96.95 121.1 95.3 123.5 93.35 128.95 89.3 134.7 85.05 137.4 83.3 141.15 80.85 150.6 75.55 161.45 69.4 165.3 67.95 171.05 65.75 179.2 62.45 181.4 61.6 182.9 61.4 184.45 61.15 183.65 61.9 182.45 62.85 182.2 63.1 181.9 63.45 183.6 62.9 185.15 62.4 186.25 61.7 187.25 61 187.4 60.95 187.6 60.9 188.5 60.5 189.35 60.1 190.2 59.9 190.75 59.75 191.55 59.3 192.15 58.95 193.35 58.85
L 196.2 58.65
Q 196.8 58.65 196.4 59.05 196 59.45 195.1 59.85 194.05 60.3 193.8 60.45 193.4 60.65 194.05 60.7 194.55 60.75 195.75 60.85 196.4 60.95 195.15 61.25 194.25 61.45 193.1 61.55 192.3 61.6 191.6 61.85 190.75 62.2 188.5 63.55 187.4 64.7 186.25 64.95 185.2 65.2 185.15 65.2 185 65.3 185.85 65.55
L 186.85 65.85
Q 187 65.8 188.3 64.95 189.5 64.15 189.95 63.95 190.35 63.75 191.95 63.2 192.8 62.9 193.7 62.3 194.2 62 195.55 61.8 196.25 61.7 197.7 61.25 198.15 61.1 198.65 61.55 199.05 61.9 200.1 61.45 200.65 61.2 200.15 62.2 199.55 63.35 198.4 63.35 197.2 63.15 196.9 63.2 196.7 63.25 196.6 63.35 196.4 63.5 195.25 63.95 193.45 64.55 192.2 65.15 192 65.25 190.7 65.65 189.95 65.9 189.1 66.6 188.15 67.4 188.05 67.5 188 67.7 187.8 68.05 187.7 68.3 187.6 68.2 187.35 68.05 186.6 68.65 185.1 69.8 185 69.95 184.7 70.3 186.55 69.55 187.85 69 188.9 68.65 189.4 68.5 189.85 68.2 190.3 67.95 190.7 67.8 191 67.65 191.6 67 192.15 66.4 191.85 66.2 191.7 66.1 192.1 65.95 192.5 65.8 192.95 65.5 193.4 65.15 194.2 64.85 194.85 64.6 195.4 64.25 195.7 64.05 196.4 63.9 196.9 63.8 196.95 63.9 196.95 64.05 198.3 63.75 199.2484375 63.55234375 200.25 63.3 200.5275390625 63.2234375 200.8 63.15 199.8427734375 63.6970703125 199 64.2 199.3677734375 64.0927734375 200 63.95
L 200.4 64
Q 201 64.05 202.1 63.85 202.8 63.75 203.45 63.25 203.65 63.1 204.25 63.75 204.8 64.35 205.3 64.8 205.4 65.05 204.55 65.5 203.75 65.95 203.7 66.25 203.65 66.45 203.7 66.8 203.6 67.15 203.65 67.2 203.75 67.25 204.3 67.3 204.7 67.35 205.45 67.3 205.8 67.4 205.05 68 203.95 68.7 203.8 68.85 203.65 68.95 204.55 68.9 205.8 68.85 206.1 69.15 206.45 69.45 205.25 69.95 204.35 70.35 204.2 70.65 204.05 70.9 203.45 71.05 202.5 71.3 202.25 71.85 201.95 72.35 202.5 72.65 202.85 72.85 203.05 72.9 203.1 72.95 203.4 73.85 203.65 74.5 204.45 75.2 204.75 75.75 202.75 76.7 200.15 77.95 199.35 78.05 198.3 78.2 198.25 77 198.2 75.75 198.05 75.7 197.9 75.6 197.05 76.3 196.35 76.85 196.4 77.15 196.4 77.35 196.65 78.05 197.05 80.45 195.35 80.75 194.55 80.9 194.5 81.05 194.4 81.35 193.95 81.5 193.15 81.8 193.05 81.8 192.95 81.75 192.45 80.8 191.85 79.7 191.35 79.5 190.8 79.3 190.85 80.5 190.9 82.15 190.75 82.5 190.45 83.1 189.3 82.1 188.55 81.45 188.1 80.6 187.85 80.2 187.15 80.2 186.2 80.2 186.15 79.75 186.05 79.3 186.7 78.65 187.3 78.05 187.1 77.5 186.9 76.95 186.1 76.85 185.15 76.7 184.55 76.2 183.8 75.6 184.6 75.2 185.2 74.95 185.5 74.75 185.65 74.7 186.45 74.65 187.05 74.65 187.55 74.9 188 75.2 188.7 75.1 189.35 75.05 190.1 74.4 190.85 73.8 191.75 73.7 193.15 73.55 194.05 72.85 194.95 72.2 193.4 72.15 191.8 72.1 191.65 71.9 191.45 71.7 192.25 71.15 192.85 70.75 193.45 70.65 193.75 70.65 194.2 70.6
L 194.6 70.45
Q 194.65 70.35 194.5 69.75 194.45 68.9 194.3 68.7 194.1 68.35 192.85 68.9 191.95 69.3 190.25 70.2 188.75 71.05 187.9 71.35 187.15 71.6 186.3 72.1 185.7 72.4 185.2 72.5 185.1 72.5 183.6 72.85 182.95 73.1 182.9 73.05 183.05 72.9 183.3 72.35 183.8 71.45 183.6 71.25 183.4 71 182.55 72.2 181.95 73.05 181.85 73.75 181.75 74.3 181 75.15 180.7 75.5 180.15 76.7 180 77 178.7 76.75 177.4 76.5 177.65 76.45 178.4 76.2 178.4 76.1 178.7 75.65 178.65 75.55 178.55 75.35 177.2 75.75 175.8 76.15 175.45 75.95 175.1 75.8 175.65 75.45 176.05 75.2 176 75 175.95 74.8 175.55 74.8 174.75 74.85 174.75 74.8 174.7 74.75 176.8 74.2
L 179.2 73.55
Q 179.1 73.55 175.45 74.1 172.65 74.55 171.5 74.95 170.15 75.4 169.2 75.6 167.25 75.75 166.75 75.85 165.95 75.95 164.55 77.1 163.4 78.05 162.95 78.05 162.35 78 161 78.8 159.4 79.65 159.3 79.75 159.35 80 158.5 81.1 157.55 82.4 157.15 82.25 156.85 82.15 156.8 82.4 156.7 82.85 156.65 82.8 156.65 82.85 156.5 84.3 156.35 85.75 156.45 86.15 156.65 87.35 156.65 87.55 156.8 89.1 156.9 89.25 157.2 89.55 158.85 89.4 160.05 89.3 161.3 89.2 162.15 89.1 163.15 88.6 164.85 87.75 165.35 87.6 166.25 87.25 165.5 88.1 164.75 88.95 164.1 89.25 163.9 89.4 162.3 89.95 160.9 90.45 160.95 91.2 161 91.95 163 91.45 164.45 91.1 166.4 90.75 167.75 90.35 168.05 88.9 168.3 87.8 169.1 87.3 169.75 86.95 169.6 86 169.45 84.75 169.75 84.55 169.75 84.5 170.65 84.4 171.1 84.35 171.8 83.95 173.3 83.1 173.55 83 174.4 82.55 174.55 82 174.65 81.5 175.1 81.35 176 81.1 176.3 80.9 176.8 80.6 177.15 80 177.5 79.4 177.85 79.3 177.95 79.25 179.1 79.15 179.8 79.1 179.95 79.1 180.6 79.25 181.05 79.3 182.05 79.45 182.3 79.55 182.45 79.6 182.9 79.9 183.35 80.1 184.15 80.1 184.55 80.2 183.75 81
L 182.6 82.15
Q 182.5 82.4 183.4 82.7 184.05 82.95 185.4 83.1 186.1 83.3 184.7 83.8 184.15 84 183 84.05 182.85 84.05 182.2 85.35 181.85 86.05 180.45 87.6 179.9 88.2 181.15 88.25 182.25 88.3 182.65 88.5 182.75 88.5 183.8 87.85 184.65 87.3 185.4 86.7 185.9 86.3 186.8 86.25 187.55 86.2 188.7 85.8 189.45 85.7 189.3 87.05
L 188.6 91.5
Q 188.45 92.7 188.05 94.65 187.8 96.1 188.35 96.5 188.85 96.85 189.2 97.5 189.55 98.25 189.8 98.45 190.55 99.15 190.85 100.15 191.35 101.7 190.45 103.35 189.45 105.25 188.95 105.6 188.45 105.95 186.6 106.15 186.15 106.2 183.6 106 182.15 105.9 181.3 106.75 180.5 107.55 180.3 108.85 180.15 110.2 179.75 110.6 178.7 111.8 178.2 112.2 177.2 113.05 176 113.35 175.2 113.8 175.05 113.85 174.9 113.9 172.3 113.3 169.1 112.55 167.8 113.3 166.45 114.05 168.05 115.9 169.4 117.5 167.9 117.75 165.65 117.8 164.7 117.85 162.85 118 159.25 119.3 158.25 119.65 156.9 119.8 155.4 119.9 154.95 120.05 153.7 119.85 152.85 119.75 151.35 119.6 150 121.25 148.15 123.4 147.7 124 147.1 124.8 147 125.75 146.85 127.2 146.65 127.4 146.1 127.9 144 127.15 141.75 126.35 140.25 126.7 139 127 137 128.55 135.25 129.8 134.8 130.1 134.3 130.45 133.5 131.55 132.85 132.45 132.1 133.4 131.45 134.25 130.6 135.7 129.9 136.9 129.2 138.05 128.75 138.75 128.5 139.6 128.15 140.7 127.9 140.9 127.5 141.3 125.6 141.75 125.5 141.75 122.8 142.1 121.85 142.2 121.3 143.2 121.05 143.6 121 143.7 121.05 143.55 121.1 143.4 121.1 142.75 119.5 144.05 118.25 145.05 116.65 145.5 115.45 145.8 114.55 147.05 113.7 148.2 113.05 148.2 112.55 148.25 112 149.5 111.55 150.65 111.5 151.25 111.5 151.8 110.7 153.6 109.9 155.5 109.5 157.3 109.1 159.2 108.85 159.8 107.6 162.85 106.8 164.3 106.2 165.4 105.9 166.65 105.55 167.45 104.3 167.7 102.8 168.05 102.3 167.4 101.8 166.75 102.8 166.05 104.95 164.55 104.8 161 104.65 157.45 105.5 156.05 105.55 156 106.8 155.4 107.6 154.95 107.3 153.5 107.25 153.25 107.3 150.65 107.3 149.8 105.95 150.5 104.45 151.3 104.25 151 104.2 150.85 104.55 149.9 105.2 149.1 105.45 148.8 105.8 148.25 104.75 147.9 104 147.65 103.8 146.65 103.75 146.3 102.5 147.35 101.5 148.2 100.7 148.75 100.4 148.95 99.95 149.6 99.35 150.55 98.7 150.5 98.05 150.4 97.85 149.3 97.9 147.55 97.85 146.75 97.75 145.35 96.4 145.35 95.386328125 145.35 95.65 145.1
L 94.15 146 92.4 147.35
Q 90.45 149 89.3 150.35 88.25 151.55 87.5 153.4 86.45 155.95 85.8 157.05 84.95 158.55 84 159.95 83.35 161.15 82.5 164.15 82 165.95 80.8 168.55 80.05 170.05 80.1 172.05 80.15 175.8 80.15 175.85 80.4 176.9 82.05 176.65 84 176.4 84.3 176.2 84.65 175.95 85.95 174 86.1 173.75 87 171.65 87.15 171.35 88.65 171.45 90.05 171.55 90.35 171.5 90.5 171.5 90.9 171.55 91.7 171.65 91.5 173.25 91.3 174.85 90.15 177.05 89.35 178.5 89 178.6 88.7 178.65 88 180.25 87.25 182 86.9 182.35 86.45 182.8 86.05 183.6 83.6 188.75 85.8 189.45 87.3 189.95 88.15 190.7 89 191.45 89.45 192.8 89.95 194.25 89.9 195.5 89.9 196.9 89.2 198.95 88.85 200 88.15 201.5 87.7 202.5 87.25 204.4 86.85 206.1 86.5 207.15 86.35 207.6 86.6 208.6 87 210.2 87.3 210.75 87.7 211.75 88.1 212.6 88.25 213.05 88.3 213.8 88.35 214.4 88.2 214.55 88.15 214.6 88.8 215.3 89.25 215.8 89.75 216.1 90.0173828125 216.2337890625 90.2 216.775 90.1 216.386328125 90.1 216.35 90.2 216.25 90.4 215.7 90.65 215.1 90.8 215.1 91.45 215.1 91.95 214.95 92.75 214.7 92.95 215 93.4 215.6 93.9 215.8 94.65 216.15 94.75 216.4 95.2 217.65 95.4 218 96.05 219.25 96.85 219.05 97.05 219 98.6 218 99.4 217.5 99.4 217 99.45 216.1 99.6 215.7 100 214.7 100.35 214.45 100.65 214.25 101.8 214.05 102.7 213.9 103.15 213.95 103.45 213.95 104.3 214.05 105.1 214.1 105.65 213.8 106.45 213.3 107.25 212.8 108.4 212.1 108.85 212.1 109.25 212.05 110 212.6 110.65 213.05 109.85 213.75 109.4 214.2 108.15 215 107.45 215.5 108.45 215.95 108.5 216 110.25 216.55 111.05 216.8 111.2 216.6 111.45 216.3 111.4 214.85 111.35 213.25 111.95 213.85 112.6 214.45 112.45 215.95 112.35 217.2 112.9 217.25 113.2 217.3 114 217.25 114.95 217.65 115.5 220.55 115.7 221.7 116.25 221.7 116.6 221.75 117.5 221.5 119.35 221.5 120.8 223.45 121.45 224.3 122.35 224.1 122.85 223.95 124 223.35 124.6 223.1 125.35 222.7 125.9 222.5 126.25 222.9 126.9 223.65 128.35 223.9 129.15 224.05 129.85 224.5 130.6 225 129.8 225.1 129 225.2 129.4 225.8 129.75 226.35 130.55 226.8 131.95 227.6 132.8 229.45 133.35 230.7 133.6 231.05 133.9 231.5 135.2 232.9 137.1 234.95 138 236.15 139.75 238.4 141.55 241.7 143.15 244.65 145.75 244.65 149.55 244.7 150.15 245 152 245.95 153.6 247.7 154.5 248.65 155.95 250.35
L 158.05 252.45
Q 159.1 253.7 159.35 255.25 159.85 258.4 161.7 259.65 162.3 260.05 163.75 260.8 165.05 262 165.6 265.2 166.15 268.45 169.4 270.8 170.65 271.75 174.2 273.4 177.65 275 178.5 277 178.85 277.8 179.95 278.2 181.75 278.8 182.1 279 183.25 279.7 185.95 280.5 188.75 281.3 190.55 281.4 192.35 281.5 194.55 282.9 196.65 284.2 197.9 285.95 199.05 287.5 201.2 288.75 203.1 289.9 204.15 289.9 205.6 289.9 206.5 290.65 208.05 291.9 209 295.35 209.9 298.7 206 303.35 203.95 305.85 200.45 308.9
L 198.45 310.95
Q 197.7 311.6 196.25 312.15 194.8 312.7 194.5 318.1 194.2 323.1 194.75 324 195.15 324.65 195.1 324.85 195 325.15 194.15 325.35 193.25 325.55 193 326 192.75 326.4 192.75 327.55 192.75 328.3 192.85 328.85 192.85 329.05 192.35 329.2 191.65 329.45 191.6 329.5 191.4 329.7 191.15 330.75 190.95 331.65 190.85 331.65 190.25 331.65 190.05 331.75 189.4 332.05 189.35 332.35 189.3 332.45 189.45 333.55 189.55 334.4 189.1 334.5 189 334.55 187.8 334.55 187.2 334.55 186.75 335.1 186.2 335.75 185.75 335.9 185.2 336.1 184.2 335.95 182.45 335.65 180.95 335.6 178.75 335.5 176.15 336.1 175.05 336.35 171.8 337.3 170 337.85 169.65 339.9 169.3 341.65 170.05 342.6 171.1 344 168.25 345.35 167.2 345.85 166.95 346.2 166.7 346.55 166.8 347.35 166.85 348.1 166.35 348.5 165.95 348.85 164.9 349.15 163.9 349.45 163.4 349.75 162.85 350.15 162.55 350.9 162.45 351.2 162.45 351.55 162.45 351.6 161.8 352.15 160.65 353.15 157.95 353.15 157.75 353.15 156.6 353 155.9 352.85 154.75 353.1 153.9 353.3 154.75 353.8 156.2 354.6 156.1 355.65 155.95 357.05 154.75 357.3 Z
M 199 64.2
Q 198.9294921875 64.2513671875 198.85 64.3 198.695703125 64.392578125 198.55 64.475 198.669140625 64.7119140625 198.05 64.95 197.1837890625 65.3146484375 198.55 64.475
L 198.55 64.45
Q 198.4908203125 64.3611328125 199 64.2 Z
M 186.9 115.7
Q 187.75 115 189.9 113.5 191.1 112.35 188.3 112.2 185.95 112.1 186.65 110.7 187.25 109.45 185.6 109.7 183.4 110 182.1 110.95 180.9 112 180.2 112.4 178.45 113.4 178.15 113.75 177.45 114.6 179.4 115.2 180.9 115.65 181.85 117.65 182.55 119 183.5 118.2 184.55 117.3 186.25 118.45 187.85 119.5 188.2 119.1 190.45 116.6 188.2 116.6 186.95 116.6 186.8 116.15
L 186.9 115.7 Z
M 282.2 114
Q 279.95 114.55 279.45 114.45 278.65 114.25 279.2 112.7 280 111.2 280.1 111 280.2 110.8 279.2 110 278.1 109.1 278.2 108.8 278.2 108.7 279.1 107.7 279.55 107.2 279.4 106 279.25 105.05 280.1 104.7 281.25 104.3 282.1 104.5 282.85 104.7 283.8 105.5 284.5 106.1 284.8 107.25 285.2 109.15 285.3 109.4 285.6 110.15 286.25 111.25 286.45 112 285.2 112.4 283.95 112.8 282.95 113.45
L 282.2 114 Z
M 95.65 145.1
Q 95.76015625 144.9880859375 96.05 144.85
M 103.75 180
Q 102.5 177.75 102 176.85 101.05 175.3 100.5 175.4 100.2 175.45 99.6 176.15 99.2 176.6 98.6 176.15 98.05 175.75 97.85 175.4 97.65 175.05 97.15 174.7 96.65 174.3 96.95 173.65 97.15 173.25 96.45 173.4 95.25 173.7 95.05 173.3 94.8 172.9 96.1 172.15 97.05 171.65 97.8 171.2 98.35 171.05 100.5 171.75 102.4 172.35 102.8 173.15 103.45 174.4 103.7 174.6 104.4 175.15 105 175.45 105.45 175.8 106.1 177.2 106.6 178.3 106.5 179.25 106.4 179.85 107.05 180.35 107.9 181 108.25 181.5
L 108.95 182.8
Q 109.3 183.4 110.5 185.45 111.1 187 108.65 185.9 108 185.6 105 184.7 104.35 184.55 104.9 183.5 105.75 182.4 105.85 182.3 105.85 182.25 104.7 181.65 103.55 181.05 103.55 180.45
L 103.75 180 Z
M 103.15 189.1
Q 102.35 188.5 101.5 188.6 100.6 188.75 101.3 189.5 101.6 189.85 101.95 190.7 102.1 191.1 102.95 191.1 105.2 191.1 104.35 190.15
L 103.15 189.1 Z
M 118.5 190.8
Q 117.65 189.45 116.15 189.1 114.15 188.65 113 187.7 111.4 186.4 111.65 187.65 111.75 188.4 112.2 190.5 112.2 191.9 111.85 192.15 111.45 192.35 110.1 191.5 108.55 190.55 108.55 191.65 108.5 192.75 110.5 193.3 111.85 193.7 112.9 195.15 113.55 196.05 114.3 195.4 115.25 194.6 116.1 194.6 116.6 194.65 117.8 194.8 118.5 194.8 119.8 195.25 120.6 195.35 119.8 193.6
L 118.5 190.8 Z
M 125 198.25
Q 125.95 198 126.65 197.35 127.3 196.65 126 196.7 125.85 196.7 123.85 196.55 123.1 196.5 123 197 122.85 197.8 122.9 198 123 198.4 123.5 198.4 124.25 198.4 125 198.25 Z
M 90.2 216.775
Q 90.2451171875 216.9080078125 90.3 217.1
L 90.4 217.2
Q 90.448046875 217.3677734375 90.475 217.675 90.3703125 217.474609375 90.3 217.1"/>

<path id="Layer11_0_1_STROKES" stroke="#000000" stroke-width="2" stroke-linejoin="round" stroke-linecap="round" fill="none" d="
M 399.05 221.25
Q 399.05 290.5 350.05 339.45 321.843359375 367.6853515625 286.9 379.65 261.1958984375 388.45 231.85 388.45 202.5072265625 388.45 176.8 379.65 141.8376953125 367.6876953125 113.6 339.45 64.65 290.5 64.65 221.25 64.65 152 113.6 103 142.3947265625 74.234765625 178.175 62.375 203.29453125 54.05 231.85 54.05 261.602734375 54.05 287.6 63.075 322.1310546875 75.0810546875 350.05 103 399.05 152 399.05 221.25 Z"/>

<path id="Layer10_0_1_STROKES" stroke="#000000" stroke-width="2" stroke-linejoin="round" stroke-linecap="round" fill="none" d="
M 287.6 63.075
Q 284.759765625 63.81875 281.3 64.5 261.8 68.4 234.2 68.4 206.6 68.4 187.05 64.5 181.94921875 63.49296875 178.175 62.375
M 176.8 379.65
Q 230.827734375 389.1919921875 286.9 379.65
M 112.1 337.95
Q 236.47890625 369.2400390625 351 338.45
M 78.15 288.35
Q 235.059375 322.4845703125 385.7 288.1
M 64.75 227.6
Q 229.7142578125 277.6564453125 398.65 233.7
M 74.7 162.7
Q 226.3791015625 220.2775390625 392.1 171.95
M 105.95 111.15
Q 211.2662109375 155.7033203125 366.55 121.9"/>

<path id="Layer9_0_1_STROKES" stroke="#000000" stroke-width="2" stroke-linejoin="round" stroke-linecap="round" fill="none" d="
M 230.05 68.4
Q 213.9349609375 217.6419921875 222.65 384.25
M 255.1 67.8
Q 344.721875 226.817578125 250.4 383.8
M 201.6 383.05
Q 90.3470703125 200.8591796875 208.45 67.4
M 187.45 64.6
Q -13.268359375 211.9640625 186 381.1
M 276.65 381.2
Q 433.5470703125 225.63515625 277.55 65.15"/>
</defs>

<g transform="matrix( 1, 0, 0, 1, 0,0) ">
<use xlink:href="#Layer12_0_1_STROKES"/>
</g>

<g transform="matrix( 1, 0, 0, 1, 0,0) ">
<use xlink:href="#Layer11_0_1_STROKES"/>
</g>

<g transform="matrix( 1, 0, 0, 1, 0,0) ">
<use xlink:href="#Layer10_0_1_STROKES"/>
</g>

<g transform="matrix( 1, 0, 0, 1, 0,0) ">
<use xlink:href="#Layer9_0_1_STROKES"/>
</g>
</svg>
