<svg xmlns:xlink="http://www.w3.org/1999/xlink" xmlns="http://www.w3.org/2000/svg" class="plot-d6a7b5" fill="currentColor" font-family="system-ui, sans-serif" font-size="10" text-anchor="middle" viewBox="0 0 740 740"><style>.plot-d6a7b5 {
  display: block;
  height: auto;
  height: intrinsic;
  max-width: 100%;
}
.plot-d6a7b5 text,
.plot-d6a7b5 tspan {
  white-space: pre;
}</style><g transform="translate(0,114)"><line aria-label="frame" stroke="currentColor" stroke-linecap="square" x1="35" x2="35" y1="20" y2="482"></line><g aria-label="y-axis tick" fill="none" stroke="currentColor" transform="translate(0,16)"><path transform="translate(35,25)" d="M0,0L-6,0"></path><path transform="translate(35,60)" d="M0,0L-6,0"></path><path transform="translate(35,95)" d="M0,0L-6,0"></path><path transform="translate(35,130)" d="M0,0L-6,0"></path><path transform="translate(35,165)" d="M0,0L-6,0"></path><path transform="translate(35,200)" d="M0,0L-6,0"></path><path transform="translate(35,235)" d="M0,0L-6,0"></path><path transform="translate(35,270)" d="M0,0L-6,0"></path><path transform="translate(35,305)" d="M0,0L-6,0"></path><path transform="translate(35,340)" d="M0,0L-6,0"></path><path transform="translate(35,375)" d="M0,0L-6,0"></path><path transform="translate(35,410)" d="M0,0L-6,0"></path><path transform="translate(35,445)" d="M0,0L-6,0"></path></g><g aria-label="y-axis tick label" text-anchor="end" transform="translate(-9,16)"><text y="0.32em" transform="translate(35,25)">1.0</text><text y="0.32em" transform="translate(35,60)">1.3</text><text y="0.32em" transform="translate(35,95)">1.7</text><text y="0.32em" transform="translate(35,130)">2.0</text><text y="0.32em" transform="translate(35,165)">2.3</text><text y="0.32em" transform="translate(35,200)">2.7</text><text y="0.32em" transform="translate(35,235)">3.0</text><text y="0.32em" transform="translate(35,270)">3.3</text><text y="0.32em" transform="translate(35,305)">3.7</text><text y="0.32em" transform="translate(35,340)">4.0</text><text y="0.32em" transform="translate(35,375)">4.3</text><text y="0.32em" transform="translate(35,410)">4.7</text><text y="0.32em" transform="translate(35,445)">5.0</text></g><g aria-label="y-axis label" transform="translate(-32,0)"><text y="0.71em" transform="translate(35,251) rotate(-90)">grade</text></g><g aria-label="x-grid" stroke="currentColor" stroke-opacity="0.1"><line x1="35" x2="35" y1="20" y2="482"></line><line x1="129.85294117647058" x2="129.85294117647058" y1="20" y2="482"></line><line x1="224.70588235294116" x2="224.70588235294116" y1="20" y2="482"></line><line x1="319.55882352941177" x2="319.55882352941177" y1="20" y2="482"></line><line x1="414.4117647058824" x2="414.4117647058824" y1="20" y2="482"></line><line x1="509.264705882353" x2="509.264705882353" y1="20" y2="482"></line><line x1="604.1176470588235" x2="604.1176470588235" y1="20" y2="482"></line></g><g aria-label="x-axis tick" fill="none" stroke="currentColor"><path transform="translate(35,482)" d="M0,0L0,6"></path><path transform="translate(129.85294117647058,482)" d="M0,0L0,6"></path><path transform="translate(224.70588235294116,482)" d="M0,0L0,6"></path><path transform="translate(319.55882352941177,482)" d="M0,0L0,6"></path><path transform="translate(414.4117647058824,482)" d="M0,0L0,6"></path><path transform="translate(509.264705882353,482)" d="M0,0L0,6"></path><path transform="translate(604.1176470588235,482)" d="M0,0L0,6"></path></g><g aria-label="x-axis tick label" font-variant="tabular-nums" transform="translate(0,9)"><text y="0.71em" transform="translate(35,482)">0</text><text y="0.71em" transform="translate(129.85294117647058,482)">10</text><text y="0.71em" transform="translate(224.70588235294116,482)">20</text><text y="0.71em" transform="translate(319.55882352941177,482)">30</text><text y="0.71em" transform="translate(414.4117647058824,482)">40</text><text y="0.71em" transform="translate(509.264705882353,482)">50</text><text y="0.71em" transform="translate(604.1176470588235,482)">60</text></g><g aria-label="x-axis label" text-anchor="end" transform="translate(57,27)"><text transform="translate(680,482)">people</text></g><g aria-label="bar"><rect x="35" width="218.16176470588235" y="25" height="32" fill="hsl(120, 100%, 50%)"></rect><rect x="35" width="218.16176470588235" y="60" height="32" fill="hsl(108, 100%, 50%)"></rect><rect x="35" width="426.8382352941176" y="95" height="32" fill="hsl(92, 100%, 50%)"></rect><rect x="35" width="379.4117647058824" y="130" height="32" fill="hsl(80, 100%, 50%)"></rect><rect x="35" width="388.8970588235294" y="165" height="32" fill="hsl(68, 100%, 50%)"></rect><rect x="35" width="645" y="200" height="32" fill="hsl(51.99999999999999, 100%, 50%)"></rect><rect x="35" width="483.75" y="235" height="32" fill="hsl(40, 100%, 50%)"></rect><rect x="35" width="445.80882352941177" y="270" height="32" fill="hsl(28.000000000000007, 100%, 50%)"></rect><rect x="35" width="398.38235294117646" y="305" height="32" fill="hsl(11.999999999999993, 100%, 50%)"></rect><rect x="35" width="350.9558823529411" y="340" height="32" fill="hsl(0, 100%, 50%)"></rect><rect x="35" width="142.27941176470588" y="375" height="32" fill="hsl(0, 100%, 42.5%)"></rect><rect x="35" width="246.61764705882354" y="410" height="32" fill="hsl(0, 100%, 32.49999999999999%)"></rect><rect x="35" width="569.1176470588235" y="445" height="32" fill="hsl(0, 100%, 25%)"></rect></g><g aria-label="text" fill="var(--minima-text-color)" transform="translate(30,16)"><text y="0.32em" transform="translate(253.16176470588235,25)">4.44% #23</text><text y="0.32em" transform="translate(253.16176470588235,60)">4.44% #23</text><text y="0.32em" transform="translate(461.8382352941176,95)">8.69% #45</text><text y="0.32em" transform="translate(414.4117647058824,130)">7.72% #40</text><text y="0.32em" transform="translate(423.8970588235294,165)">7.92% #41</text><text y="0.32em" transform="translate(680,200)">13.13% #68</text><text y="0.32em" transform="translate(518.75,235)">9.85% #51</text><text y="0.32em" transform="translate(480.80882352941177,270)">9.07% #47</text><text y="0.32em" transform="translate(433.38235294117646,305)">8.11% #42</text><text y="0.32em" transform="translate(385.9558823529411,340)">7.14% #37</text><text y="0.32em" transform="translate(177.27941176470588,375)">2.9% #15</text><text y="0.32em" transform="translate(281.61764705882354,410)">5.02% #26</text><text y="0.32em" transform="translate(604.1176470588235,445)">11.58% #60</text></g></g></svg>