<?xml version="1.0" encoding="UTF-8" standalone="no"?>
<!-- Created with Inkscape (http://www.inkscape.org/) -->

<svg
   width="48"
   height="48"
   viewBox="0 0 12.7 12.7"
   version="1.1"
   id="svg5"
   xml:space="preserve"
   inkscape:version="1.2.2 (b0a8486541, 2022-12-01)"
   sodipodi:docname="favicon.svg"
   inkscape:export-filename="favicon.png"
   inkscape:export-xdpi="96"
   inkscape:export-ydpi="96"
   xmlns:inkscape="http://www.inkscape.org/namespaces/inkscape"
   xmlns:sodipodi="http://sodipodi.sourceforge.net/DTD/sodipodi-0.dtd"
   xmlns="http://www.w3.org/2000/svg"
   xmlns:svg="http://www.w3.org/2000/svg"><sodipodi:namedview
     id="namedview7"
     pagecolor="#ffffff"
     bordercolor="#999999"
     borderopacity="1"
     inkscape:showpageshadow="0"
     inkscape:pageopacity="0"
     inkscape:pagecheckerboard="true"
     inkscape:deskcolor="#d1d1d1"
     inkscape:document-units="px"
     showgrid="false"
     inkscape:zoom="3.3638608"
     inkscape:cx="53.064027"
     inkscape:cy="25.565862"
     inkscape:window-width="1443"
     inkscape:window-height="481"
     inkscape:window-x="2040"
     inkscape:window-y="82"
     inkscape:window-maximized="0"
     inkscape:current-layer="layer1" /><defs
     id="defs2" /><g
     inkscape:label="Layer 1"
     inkscape:groupmode="layer"
     id="layer1"><path
       style="fill:#000000;fill-opacity:1;stroke-width:0.0394856"
       d="M 1.5433782,12.649477 C 0.98949608,12.498889 0.45758002,12.052267 0.21142551,11.531106 -0.0131884,11.055549 -0.00709773,11.210802 0.00449687,6.2564921 L 0.01516057,1.6999591 0.10642381,1.4429885 C 0.34426707,0.77329146 0.85871456,0.28604211 1.553211,0.0726909 1.7770926,0.00391446 2.0351102,0 6.3448297,0 c 4.3097193,0 4.5677363,0.00391044 4.7916183,0.0726909 0.752569,0.23119144 1.322586,0.8297274 1.497136,1.5720438 0.08678,0.369067 0.08935,9.0057273 0.0028,9.4151723 -0.141788,0.670753 -0.654901,1.268981 -1.322458,1.541832 l -0.216904,0.08865 -4.6733071,0.0076 c -3.9369417,0.0064 -4.7059255,-0.0012 -4.8803247,-0.0486 z"
       id="path2376" /><text
       xml:space="preserve"
       style="font-style:normal;font-variant:normal;font-weight:bold;font-stretch:normal;font-size:11.2889px;font-family:Roboto;-inkscape-font-specification:'Roboto Bold';fill:#2dd4bf;fill-opacity:1;stroke-width:0.264583"
       x="6.3554726"
       y="10.3629"
       id="text112"><tspan
         sodipodi:role="line"
         id="tspan110"
         style="font-size:11.2889px;text-align:center;text-anchor:middle;fill:#2dd4bf;fill-opacity:1;stroke-width:0.264583"
         x="6.3554726"
         y="10.3629">M</tspan></text></g></svg>
